<svg xmlns="http://www.w3.org/2000/svg" width="40.557" height="10.999" viewBox="0 0 40.557 10.999"><defs><style>.a{fill:#0d4aa0;}</style></defs><g transform="translate(-1085.512 -304.741)"><path class="a" d="M5.141,10.282A5.141,5.141,0,0,1,1.506,1.506a5.141,5.141,0,1,1,7.27,7.27A5.107,5.107,0,0,1,5.141,10.282ZM6.509,3.6h0l.042.161.843,3.054h.686L6.929,2.85,6.9,2.742H6.3l-.014.022-.56.994L5.155,4.777,5.142,4.8l-.006-.024-.07-.262-.2-.757-.021-.075L4.632,2.85,4.6,2.742h-.6l-.014.022-.56.994L2.858,4.777l-.57,1.015L1.714,6.811H2.4l.574-1.019.574-1.015.57-1.019L4.212,3.6l.042.161.175.671.217.836.076.285-.136.242L4.012,6.811H4.7l.242-.43.421-.747.485-.858.57-1.019L6.508,3.6Z" transform="translate(1085.512 304.741)"/><path class="a" d="M45.171,14.069l1.1-5.975a.18.18,0,0,1,.16-.133h.142a.181.181,0,0,1,.151.1L48.585,12.6h.036l1.85-4.544a.17.17,0,0,1,.151-.1h.142a.18.18,0,0,1,.16.133l1.094,5.975a.152.152,0,0,1-.16.2H51.28a.185.185,0,0,1-.169-.124l-.658-3.975h-.027l-1.6,4.09a.151.151,0,0,1-.151.1h-.16a.16.16,0,0,1-.151-.1l-1.609-4.09h-.036l-.64,3.975a.173.173,0,0,1-.16.124H45.34A.16.16,0,0,1,45.171,14.069Zm8.539.08-1.547-3.2a.157.157,0,0,1,.151-.231H52.9a.193.193,0,0,1,.151.1l1.1,2.365h.009l1.067-2.365a.179.179,0,0,1,.187-.1h.507a.152.152,0,0,1,.151.231l-2.721,5.887a.178.178,0,0,1-.151.107H52.67a.159.159,0,0,1-.151-.24Zm4,.124a.157.157,0,0,1-.151-.231l2.73-5.984a.208.208,0,0,1,.151-.1h.089a.208.208,0,0,1,.151.1l2.712,5.984a.157.157,0,0,1-.151.231h-.56a.207.207,0,0,1-.2-.133l-.551-1.218H59.018c-.178.409-.365.809-.542,1.218a.223.223,0,0,1-.2.133Zm1.654-2.116h2.223L60.494,9.721h-.044ZM63.751,14.1V8.218a.175.175,0,0,1,.169-.169h.507a.175.175,0,0,1,.169.169V14.1a.175.175,0,0,1-.169.169H63.92A.175.175,0,0,1,63.751,14.1Zm1.435-.044a1.226,1.226,0,0,1,.631-1.014,1.428,1.428,0,0,1-.276-.863,1.524,1.524,0,0,1,1.529-1.556h1.556a.164.164,0,0,1,.169.169v.222c0,.062-.036.142-.1.151l-.489.133a1.19,1.19,0,0,1,.382.951A1.453,1.453,0,0,1,67.08,13.7a2.615,2.615,0,0,1-.774-.142.489.489,0,0,0-.365.436.379.379,0,0,0,.427.365h1.209a1.233,1.233,0,0,1,1.4,1.192c0,.782-.711,1.476-1.894,1.476-1.254,0-1.761-.64-1.761-1.218a.98.98,0,0,1,.525-.836v-.027A.918.918,0,0,1,65.186,14.06Zm1.9-1.04a.749.749,0,0,0,.747-.818.749.749,0,0,0-.747-.818.819.819,0,0,0,0,1.636Zm-.943,2.65c0,.365.382.631.925.631s1.014-.276,1.014-.7c0-.142-.089-.507-.667-.507-.258,0-.525,0-.783.018C66.582,15.127,66.146,15.269,66.146,15.669Zm3.009-3.183a1.8,1.8,0,1,1,1.8,1.876A1.839,1.839,0,0,1,69.155,12.486Zm.791,0a1.01,1.01,0,1,0,2.01,0,1.008,1.008,0,1,0-2.01,0Z" transform="translate(1053.321 298.71)"/></g></svg>