<svg xmlns="http://www.w3.org/2000/svg" width="79.626" height="21.595" viewBox="0 0 79.626 21.595"><defs><style>.a{fill:#0d4aa0;}</style></defs><g transform="translate(-1085.512 -304.741)"><path class="a" d="M10.094,20.187A10.093,10.093,0,0,1,2.956,2.956,10.093,10.093,0,1,1,17.231,17.231,10.027,10.027,0,0,1,10.094,20.187ZM12.779,7.06v0l.082.315,1.655,6h1.346L13.6,5.595l-.055-.211H12.374l-.027.042-1.1,1.951-1.126,2-.027.048-.013-.048-.137-.514L9.56,7.377l-.041-.148L9.093,5.595l-.055-.211H7.864l-.027.042-1.1,1.951-1.126,2-1.12,1.994-1.126,2H4.712l1.126-2L6.965,9.378l1.119-2,.185-.317.082.317.343,1.318.426,1.641.148.56L9,11.372l-1.126,2H9.222l.475-.844.826-1.466.951-1.684,1.119-2,.184-.315Z" transform="translate(1085.512 304.741)"/><path class="a" d="M45.174,19.954,47.339,8.222a.353.353,0,0,1,.314-.262h.279a.354.354,0,0,1,.3.192l3.649,8.921h.07l3.631-8.921a.333.333,0,0,1,.3-.192h.279a.353.353,0,0,1,.314.262l2.147,11.732a.3.3,0,0,1-.314.4H57.167a.363.363,0,0,1-.332-.244l-1.292-7.8h-.052l-3.142,8.031a.3.3,0,0,1-.3.192h-.314a.314.314,0,0,1-.3-.192l-3.16-8.031h-.07l-1.257,7.8a.34.34,0,0,1-.314.244H45.506A.313.313,0,0,1,45.174,19.954Zm16.765.157L58.9,13.826a.308.308,0,0,1,.3-.454h1.152a.379.379,0,0,1,.3.192l2.165,4.644h.017l2.095-4.644a.351.351,0,0,1,.367-.192h1a.3.3,0,0,1,.3.454L61.241,25.383a.349.349,0,0,1-.3.209H59.9a.313.313,0,0,1-.3-.471Zm7.853.244a.308.308,0,0,1-.3-.454l5.36-11.749a.408.408,0,0,1,.3-.192h.175a.408.408,0,0,1,.3.192L80.948,19.9a.308.308,0,0,1-.3.454h-1.1a.407.407,0,0,1-.4-.262L78.068,17.7H72.359c-.349.8-.716,1.589-1.065,2.392a.439.439,0,0,1-.4.262ZM73.04,16.2H77.4l-2.147-4.783H75.17Zm8.613,3.823V8.466a.343.343,0,0,1,.332-.332h1a.343.343,0,0,1,.332.332V20.023a.343.343,0,0,1-.332.332h-1A.343.343,0,0,1,81.652,20.023Zm2.817-.087a2.407,2.407,0,0,1,1.24-1.99,2.8,2.8,0,0,1-.541-1.693,2.991,2.991,0,0,1,3-3.055h3.055a.321.321,0,0,1,.332.332v.436c0,.122-.07.279-.192.3l-.96.262a2.337,2.337,0,0,1,.751,1.868,2.853,2.853,0,0,1-2.968,2.846,5.135,5.135,0,0,1-1.519-.279.96.96,0,0,0-.716.855.745.745,0,0,0,.838.716h2.374c1.519,0,2.741.821,2.741,2.339,0,1.536-1.4,2.9-3.719,2.9-2.462,0-3.457-1.257-3.457-2.392a1.924,1.924,0,0,1,1.03-1.641v-.052A1.8,1.8,0,0,1,84.469,19.936Zm3.736-2.043a1.47,1.47,0,0,0,1.466-1.606,1.47,1.47,0,0,0-1.466-1.606,1.514,1.514,0,0,0-1.536,1.606A1.514,1.514,0,0,0,88.205,17.893Zm-1.851,5.2c0,.716.751,1.24,1.816,1.24s1.99-.541,1.99-1.379c0-.279-.175-1-1.309-1-.506,0-1.03,0-1.536.035C87.21,22.031,86.355,22.31,86.355,23.1Zm5.907-6.25a3.53,3.53,0,1,1,3.526,3.684A3.611,3.611,0,0,1,92.261,16.846Zm1.554,0a1.983,1.983,0,1,0,3.945,0,1.979,1.979,0,1,0-3.945,0Z" transform="translate(1065.823 300.568)"/></g></svg>