<svg xmlns="http://www.w3.org/2000/svg" width="62.695" height="17.003" viewBox="0 0 62.695 17.003"><defs><style>.a{fill:#0d4aa0;}</style></defs><g transform="translate(-1085.512 -304.741)"><path class="a" d="M7.948,15.895A7.947,7.947,0,0,1,2.328,2.328,7.947,7.947,0,1,1,13.567,13.567,7.9,7.9,0,0,1,7.948,15.895ZM10.062,5.559h0l.065.248,1.3,4.721h1.06L10.711,4.405l-.043-.166H9.743l-.021.033L8.856,5.808,7.969,7.384l-.021.038-.01-.038-.108-.4-.3-1.171L7.5,5.692,7.16,4.405l-.043-.166H6.192l-.021.033L5.305,5.808,4.418,7.384l-.882,1.57L2.65,10.529H3.71L4.6,8.954l.887-1.57.881-1.575.146-.249.065.249.27,1.038.336,1.292.117.441-.211.375L6.2,10.529h1.06l.374-.665.65-1.154.749-1.326.881-1.575.145-.248Z" transform="translate(1085.512 304.741)"/><path class="a" d="M45.173,17.4l1.7-9.237a.278.278,0,0,1,.247-.206h.22a.279.279,0,0,1,.234.151l2.873,7.024h.055l2.859-7.024A.262.262,0,0,1,53.6,7.96h.22a.278.278,0,0,1,.247.206L55.757,17.4a.234.234,0,0,1-.247.316h-.893a.285.285,0,0,1-.261-.192l-1.017-6.144H53.3l-2.474,6.323a.234.234,0,0,1-.234.151h-.247a.247.247,0,0,1-.234-.151l-2.488-6.323h-.055l-.99,6.144a.268.268,0,0,1-.247.192h-.893A.247.247,0,0,1,45.173,17.4Zm13.2.124-2.392-4.949a.243.243,0,0,1,.234-.357h.907a.3.3,0,0,1,.234.151l1.7,3.656h.014l1.649-3.656a.277.277,0,0,1,.289-.151H61.8a.236.236,0,0,1,.234.357l-4.206,9.1a.275.275,0,0,1-.234.165h-.825a.246.246,0,0,1-.234-.371Zm6.184.192a.243.243,0,0,1-.234-.357l4.22-9.251a.322.322,0,0,1,.234-.151h.137a.322.322,0,0,1,.234.151l4.192,9.251a.243.243,0,0,1-.234.357h-.866a.32.32,0,0,1-.316-.206l-.852-1.883H66.577c-.275.632-.564,1.251-.839,1.883a.345.345,0,0,1-.316.206Zm2.557-3.272H70.55l-1.691-3.766h-.069Zm6.781,3.01v-9.1a.27.27,0,0,1,.261-.261h.784a.27.27,0,0,1,.261.261v9.1a.27.27,0,0,1-.261.261h-.784A.27.27,0,0,1,73.895,17.458Zm2.218-.069a1.9,1.9,0,0,1,.976-1.567,2.207,2.207,0,0,1-.426-1.333,2.355,2.355,0,0,1,2.364-2.406h2.406a.253.253,0,0,1,.261.261v.344c0,.1-.055.22-.151.234l-.756.206a1.84,1.84,0,0,1,.591,1.471,2.246,2.246,0,0,1-2.337,2.241,4.043,4.043,0,0,1-1.2-.22.756.756,0,0,0-.564.674.586.586,0,0,0,.66.564H79.81A1.906,1.906,0,0,1,81.968,19.7c0,1.21-1.1,2.282-2.928,2.282-1.938,0-2.722-.99-2.722-1.883a1.515,1.515,0,0,1,.811-1.292v-.041A1.419,1.419,0,0,1,76.113,17.39Zm2.942-1.608a1.158,1.158,0,0,0,1.155-1.265,1.158,1.158,0,0,0-1.155-1.265,1.192,1.192,0,0,0-1.21,1.265A1.192,1.192,0,0,0,79.054,15.781Zm-1.457,4.1c0,.564.591.976,1.43.976s1.567-.426,1.567-1.086c0-.22-.137-.784-1.031-.784-.4,0-.811,0-1.21.027C78.271,19.039,77.6,19.259,77.6,19.878Zm4.651-4.921a2.779,2.779,0,1,1,2.777,2.9A2.843,2.843,0,0,1,82.248,14.957Zm1.223,0a1.561,1.561,0,1,0,3.107,0,1.558,1.558,0,1,0-3.107,0Z" transform="translate(1060.405 299.763)"/></g></svg>